<svg xmlns="http://www.w3.org/2000/svg" xmlns:xlink="http://www.w3.org/1999/xlink" width="100%" height="100%" baseProfile="tiny" version="1.1" viewBox="0 0 16 16" xml:space="preserve"><g id="Artboard1" transform="matrix(1.06667,0,0,1.06667,0,0)"><rect style="fill:none" width="15" height="15" x="0" y="0"/><g><path d="M14,14L4,14L4,6L14,6L14,14ZM13.286,7.714L4.714,7.714L4.714,13.429L13.286,13.429L13.286,7.714Z" transform="matrix(1.3125,0,0,1.64062,-4.3125,-8.90625)" style="fill:url(#_Linear1)"/></g><g transform="matrix(1.04167,0,0,1.07143,-0.3125,-0.669643)"><rect style="fill:url(#_Linear2)" width="9" height="7" x="3" y="5"/></g><g><path d="M11.881,4.942L2.882,5.001L3,12L11.999,11.941L11.881,4.942Z" transform="matrix(-0.00876788,0.833287,-1.33921,-0.0140912,18.9099,2.35673)" style="fill:url(#_Linear3)"/></g></g><defs><linearGradient id="_Linear1" x1="0" x2="1" y1="0" y2="0" gradientTransform="matrix(0.002173,9.84615,-12.3077,0.0017384,9,5.38462)" gradientUnits="userSpaceOnUse"><stop style="stop-color:#aeaeae;stop-opacity:1" offset="0"/><stop style="stop-color:#767676;stop-opacity:1" offset=".1"/><stop style="stop-color:#474747;stop-opacity:1" offset=".3"/><stop style="stop-color:#363636;stop-opacity:1" offset="1"/></linearGradient><linearGradient id="_Linear2" x1="0" x2="1" y1="0" y2="0" gradientTransform="matrix(9,0,0,9,3,8)" gradientUnits="userSpaceOnUse"><stop style="stop-color:#ff0808;stop-opacity:1" offset="0"/><stop style="stop-color:#b1b153;stop-opacity:1" offset=".2"/><stop style="stop-color:#28a6f4;stop-opacity:1" offset=".5"/><stop style="stop-color:#b056b9;stop-opacity:1" offset=".9"/><stop style="stop-color:#e73b32;stop-opacity:1" offset="1"/></linearGradient><linearGradient id="_Linear3" x1="0" x2="1" y1="0" y2="0" gradientTransform="matrix(9,1.38778e-17,0,9,3,8)" gradientUnits="userSpaceOnUse"><stop style="stop-color:white;stop-opacity:.5" offset="0"/><stop style="stop-color:#ebebeb;stop-opacity:.394118" offset=".3"/><stop style="stop-color:#9e9e9e;stop-opacity:0" offset=".5"/><stop style="stop-color:#2a2a2a;stop-opacity:.366667" offset=".8"/><stop style="stop-color:black;stop-opacity:.5" offset="1"/></linearGradient></defs></svg>