<svg xmlns="http://www.w3.org/2000/svg" xmlns:xlink="http://www.w3.org/1999/xlink" width="100%" height="100%" baseProfile="tiny" version="1.1" viewBox="0 0 24 24" xml:space="preserve"><g><g transform="matrix(1,0,0,1,-194,-94) matrix(1,0,0,1,62,67)"><g id="detailed"><rect style="fill:none" id="pen_detailed" width="24" height="24" x="132" y="27"/><g><g><path style="fill:url(#_Linear2)" d="M145,34.501C145,34.224 144.756,34 144.455,34L137.545,34C137.244,34 137,34.224 137,34.501C137,34.501 136.428,43.583 137,45.499C137.33,46.607 140.738,46.321 141.039,46.321C141.039,46.321 145.034,46.523 145.359,45.425C145.362,45.416 145.364,45.408 145.367,45.399C145.917,43.428 145,34.501 145,34.501Z" transform="matrix(0.820112,0.815174,-0.893311,0.887933,73.7185,-121.129)"/><g><g><path style="fill:url(#_Linear4)" d="M138.502,30.183C138.794,30.855 139,31.899 139,32.694C139,33.425 138.852,34.402 138.62,35.079C138.125,35.113 137.673,35.136 137.127,35.036C136.795,34.237 136.731,33.074 136.731,32.299C136.731,31.593 136.709,30.641 137.014,30.306C137.038,30.279 137.829,30.11 138.502,30.183Z" transform="matrix(0.820112,0.815174,-0.893311,0.887933,73.7185,-121.129) matrix(-6.66134e-16,-2.41411,1.78839,8.88178e-16,82.7713,376.145)"/></g><g><path style="fill:url(#_Linear5)" d="M138.503,30.19C138.796,30.865 139,31.899 139,32.694C139,33.425 138.852,34.391 138.616,35.081C138.068,35.11 137.585,35.098 137.312,35.014L137.159,34.603L136.87,33.479L136.859,32.581C136.859,32.479 136.815,31.745 136.897,31.151L137.122,30.441L137.164,30.357L137.199,30.323C137.432,30.229 137.919,30.19 138.503,30.19Z" transform="matrix(0.820112,0.815174,-0.893311,0.887933,73.7185,-121.129) matrix(4.44089e-16,-2.41411,1.78839,5.55112e-16,82.7713,376.713)"/></g><g><path style="fill:url(#_Linear6)" d="M137.906,30.309C138.114,30.367 138.199,30.445 138.199,30.445C138.96,31.042 139,32.043 139,32.694C139,33.745 138.637,34.782 138.124,35.037C138.121,35.039 137.838,35.001 137.834,34.997C137.649,34.963 137.481,34.861 137.394,34.714C137.255,34.479 137.122,34.271 136.999,33.587C136.94,33.257 137.03,32.581 137.03,32.581L137.028,32.056L137.06,31.338C137.12,30.851 137.313,30.407 137.767,30.323C137.767,30.323 137.861,30.296 137.906,30.309Z" transform="matrix(0.820112,0.815174,-0.893311,0.887933,73.7185,-121.129) matrix(0,-1.11578,1.78839,4.44089e-16,82.7713,199.217)"/></g><g><path style="fill:#021112" d="M138.032,29.884C138.366,29.884 139,30.467 139,32.694C139,33.967 138.753,35.475 138.201,35.475C137.65,35.475 137.541,34.248 137.402,32.812C137.42,31.291 137.699,29.884 138.032,29.884Z" transform="matrix(0.820112,0.815174,-0.893311,0.887933,73.7185,-121.129) matrix(0,-1.20938,1.39062,2.22045e-16,95.8082,212.476)"/></g></g></g><g><g><g><path style="fill:url(#_Linear7)" d="M136.982,42.182C137.39,40.999 137.546,39.346 137.578,38.954C137.582,38.9 137.611,38.852 137.656,38.822C138.201,38.467 141.704,36.182 142.883,35.31C143.328,34.98 143.769,34.606 144.148,34.264C144.153,34.259 144.159,34.255 144.165,34.25C145.001,33.483 145.395,33.32 145.395,33.32L148.799,36.725C148.799,36.725 147.527,37.915 146.668,39.075C145.796,40.254 143.519,43.785 143.166,44.333C143.137,44.378 143.089,44.407 143.035,44.411C142.696,44.441 141.403,44.572 140.374,44.928C138.98,45.409 134.727,47.262 134.727,47.262C134.727,47.262 136.5,43.577 136.982,42.182Z" transform="matrix(-0.820112,-0.815174,0.820112,-0.815174,225.946,189.518) matrix(-0.707107,0.707107,-0.707107,-0.707107,270.952,-30.3717)"/></g><g><path style="fill:url(#_Linear8)" d="M136.982,42.182C137.39,40.999 137.546,39.346 137.578,38.954C137.582,38.9 137.611,38.852 137.656,38.822C138.201,38.467 141.704,36.182 142.883,35.31C143.328,34.98 143.769,34.606 144.148,34.264C144.152,34.26 144.16,34.26 144.165,34.256C144.807,33.676 145.377,33.302 145.377,33.302L147.128,35.054C147.128,35.054 145.855,36.243 144.997,37.404C144.125,38.583 141.847,42.114 141.495,42.661C141.466,42.706 141.417,42.735 141.364,42.739C141.024,42.77 139.732,42.901 138.703,43.256C137.309,43.738 134.727,47.262 134.727,47.262C134.727,47.262 136.5,43.577 136.982,42.182Z" transform="matrix(-0.820112,-0.815174,0.820112,-0.815174,225.946,189.518) matrix(-0.707107,0.707107,-0.707107,-0.707107,270.952,-30.3717)"/></g><g><path style="fill:url(#_Linear9)" d="M141.297,40.686C141.251,40.61 141.225,40.522 141.225,40.427C141.225,40.151 141.449,39.927 141.725,39.927C142.001,39.927 142.225,40.151 142.225,40.427C142.225,40.703 142.001,40.927 141.725,40.927C141.612,40.927 141.509,40.89 141.425,40.827L139.023,43.229L138.796,43.329L141.297,40.686Z" transform="matrix(-0.820112,-0.815174,0.820112,-0.815174,225.946,189.518) matrix(-1.46241,1.46241,-1.46241,-1.46241,408.607,-108.135)"/></g><g><path d="M141.297,40.686C141.251,40.61 141.225,40.522 141.225,40.427C141.225,40.151 141.449,39.927 141.725,39.927C142.001,39.927 142.225,40.151 142.225,40.427C142.225,40.703 142.001,40.927 141.725,40.927C141.612,40.927 141.509,40.89 141.425,40.827L139.122,43.102L138.726,43.257L141.297,40.686Z" transform="matrix(-0.820112,-0.815174,0.820112,-0.815174,225.946,189.518) matrix(-1.46241,1.46241,-1.46241,-1.46241,408.395,-108.135)"/></g></g></g><g><path style="fill:url(#_Linear10)" d="M170.844,115.21C171.181,114.506 172.973,110.742 173.495,109.23C173.986,107.81 174.171,105.825 174.209,105.363C174.214,105.301 174.247,105.245 174.3,105.211C174.941,104.793 179.144,102.051 180.557,101.006C181.918,100 183.319,98.562 183.485,98.39L185.716,100.621C185.677,100.658 185.669,100.665 185.716,100.621L187.716,102.621C187.716,102.621 186.114,104.123 185.087,105.511C184.042,106.925 181.311,111.16 180.895,111.806C180.861,111.858 180.805,111.892 180.742,111.897C180.341,111.932 178.789,112.089 177.555,112.515C175.942,113.073 171.133,115.163 170.797,115.309L170.844,115.21Z" transform="matrix(0.969187,0,0,0.963352,-30.4495,-63.1946)"/></g><g><path style="fill:url(#_Linear11)" d="M144.444,44.926C143.88,45.066 142.875,45.318 141.906,45.577C140.201,46.033 134.971,48.483 134.971,48.483C134.971,48.483 135.026,48.368 135.121,48.168C136.248,47.658 140.066,45.989 141.555,45.515C142.55,45.126 143.806,44.974 144.444,44.926ZM151.638,35.699L151.811,35.873C151.811,35.873 150.135,37.297 149.108,38.685C148.055,40.11 145.321,44.187 144.945,44.749C144.933,44.767 144.919,44.781 144.903,44.794C145.341,44.112 148.048,39.917 149.087,38.511C150.086,37.1 151.624,35.689 151.638,35.699Z" transform="matrix(0.969187,5.34768e-17,2.15203e-16,0.963352,4.44124,1.34994)"/></g></g></g></g></g><defs><linearGradient id="_Linear2" x1="0" x2="1" y1="0" y2="0" gradientTransform="matrix(14.1421,-8.88178e-15,8.88178e-15,14.1421,133.222,40.7071)" gradientUnits="userSpaceOnUse"><stop style="stop-color:#1fadff;stop-opacity:1" offset="0"/><stop style="stop-color:#36b0ff;stop-opacity:1" offset=".2"/><stop style="stop-color:#67b6fe;stop-opacity:1" offset=".2"/><stop style="stop-color:#95bcfe;stop-opacity:1" offset=".3"/><stop style="stop-color:#7487d4;stop-opacity:1" offset=".4"/><stop style="stop-color:#5252aa;stop-opacity:1" offset=".6"/><stop style="stop-color:#423996;stop-opacity:1" offset="1"/></linearGradient><linearGradient id="_Linear4" x1="0" x2="1" y1="0" y2="0" gradientTransform="matrix(0.16732,5.0578,-3.43983,0.246022,138.063,29.6579)" gradientUnits="userSpaceOnUse"><stop style="stop-color:#002e56;stop-opacity:1" offset="0"/><stop style="stop-color:white;stop-opacity:1" offset=".2"/><stop style="stop-color:white;stop-opacity:1" offset=".5"/><stop style="stop-color:#143351;stop-opacity:1" offset=".8"/><stop style="stop-color:#899fbf;stop-opacity:1" offset=".9"/><stop style="stop-color:#757e90;stop-opacity:1" offset="1"/></linearGradient><linearGradient id="_Linear5" x1="0" x2="1" y1="0" y2="0" gradientTransform="matrix(0.16732,5.0578,-3.43983,0.246022,138.063,29.6579)" gradientUnits="userSpaceOnUse"><stop style="stop-color:#09628e;stop-opacity:1" offset="0"/><stop style="stop-color:white;stop-opacity:1" offset=".2"/><stop style="stop-color:white;stop-opacity:1" offset=".5"/><stop style="stop-color:#1d446b;stop-opacity:1" offset=".8"/><stop style="stop-color:#899fbf;stop-opacity:1" offset=".9"/><stop style="stop-color:#757e90;stop-opacity:1" offset="1"/></linearGradient><linearGradient id="_Linear6" x1="0" x2="1" y1="0" y2="0" gradientTransform="matrix(2.22045e-15,3.95387,-5.81802,0,138.182,30.5824)" gradientUnits="userSpaceOnUse"><stop style="stop-color:#081823;stop-opacity:1" offset="0"/><stop style="stop-color:#556670;stop-opacity:1" offset="1"/></linearGradient><linearGradient id="_Linear7" x1="0" x2="1" y1="0" y2="0" gradientTransform="matrix(6.61672,5.26109,-5.26109,6.61672,139.187,36.5407)" gradientUnits="userSpaceOnUse"><stop style="stop-color:#a5a5a5;stop-opacity:1" offset="0"/><stop style="stop-color:#7d7d7d;stop-opacity:1" offset=".1"/><stop style="stop-color:#717171;stop-opacity:1" offset=".1"/><stop style="stop-color:white;stop-opacity:1" offset=".4"/><stop style="stop-color:#d2d2d2;stop-opacity:1" offset=".6"/><stop style="stop-color:#656565;stop-opacity:1" offset=".8"/><stop style="stop-color:#636363;stop-opacity:1" offset=".8"/><stop style="stop-color:#5f5f5f;stop-opacity:1" offset=".8"/><stop style="stop-color:#5a5a5a;stop-opacity:1" offset=".8"/><stop style="stop-color:#bdbdbd;stop-opacity:1" offset=".9"/><stop style="stop-color:#e4e4e4;stop-opacity:1" offset="1"/></linearGradient><linearGradient id="_Linear8" x1="0" x2="1" y1="0" y2="0" gradientTransform="matrix(3.19488,5.02783,-5.02783,3.19488,138.331,32.5407)" gradientUnits="userSpaceOnUse"><stop style="stop-color:#2c2c2c;stop-opacity:1" offset="0"/><stop style="stop-color:#2c2c2c;stop-opacity:.803922" offset=".6"/><stop style="stop-color:#2c2c2c;stop-opacity:.392157" offset=".8"/><stop style="stop-color:#2c2c2c;stop-opacity:0" offset="1"/></linearGradient><linearGradient id="_Linear9" x1="0" x2="1" y1="0" y2="0" gradientTransform="matrix(-6.5693,6.5693,-6.5693,-6.5693,142.083,39.917)" gradientUnits="userSpaceOnUse"><stop style="stop-color:#b2b2b2;stop-opacity:1" offset="0"/><stop style="stop-color:#f0efef;stop-opacity:1" offset=".1"/><stop style="stop-color:#d4d1d1;stop-opacity:1" offset=".1"/><stop style="stop-color:#766b6c;stop-opacity:1" offset=".2"/><stop style="stop-color:#ddd;stop-opacity:1" offset=".5"/><stop style="stop-color:#d2d2d2;stop-opacity:1" offset=".8"/><stop style="stop-color:#b8b8b8;stop-opacity:1" offset=".9"/><stop style="stop-color:#9b9b9b;stop-opacity:1" offset="1"/></linearGradient><linearGradient id="_Linear10" x1="0" x2="1" y1="0" y2="0" gradientTransform="matrix(-2.81842,2.81842,-2.81842,-2.81842,184.379,100)" gradientUnits="userSpaceOnUse"><stop style="stop-color:black;stop-opacity:1" offset="0"/><stop style="stop-color:black;stop-opacity:.301961" offset=".6"/><stop style="stop-color:black;stop-opacity:0" offset="1"/></linearGradient><linearGradient id="_Linear11" x1="0" x2="1" y1="0" y2="0" gradientTransform="matrix(-11.1239,11.1239,-11.1239,-11.1239,152.8,36.9036)" gradientUnits="userSpaceOnUse"><stop style="stop-color:black;stop-opacity:1" offset="0"/><stop style="stop-color:#c2c2c2;stop-opacity:1" offset=".3"/><stop style="stop-color:#5b5f5d;stop-opacity:1" offset="1"/></linearGradient></defs></svg>